<svg xmlns="http://www.w3.org/2000/svg" xmlns:xlink="http://www.w3.org/1999/xlink" width="500" zoomAndPan="magnify" viewBox="0 0 375 187.499995" height="250" preserveAspectRatio="xMidYMid meet" version="1.0"><defs><g/><clipPath id="8acee3c5a7"><rect x="0" width="207" y="0" height="123"/></clipPath><clipPath id="8ee7467660"><rect x="0" width="283" y="0" height="122"/></clipPath></defs><g transform="matrix(1, 0, 0, 1, 41, 0)"><g clip-path="url(#8acee3c5a7)"><g fill="#5170ff" fill-opacity="1"><g transform="translate(1.507654, 95.851795)"><g><path d="M 43.640625 -71.359375 L 43.640625 -47.71875 L 27.53125 -47.71875 C 26.570312 -47.71875 26.09375 -47.273438 26.09375 -46.390625 L 43.640625 -46.390625 L 43.640625 -22.640625 L 26.09375 -22.640625 L 26.09375 0 L 1.015625 0 L 1.015625 -45.265625 C 1.015625 -50.566406 2.148438 -55.15625 4.421875 -59.03125 C 6.703125 -62.90625 9.878906 -65.925781 13.953125 -68.09375 C 18.035156 -70.269531 22.695312 -71.359375 27.9375 -71.359375 Z M 43.640625 -71.359375 "/></g></g></g><g fill="#5170ff" fill-opacity="1"><g transform="translate(46.160705, 95.851795)"><g><path d="M 33.4375 -25.796875 C 34.9375 -26.609375 35.820312 -27.742188 36.09375 -29.203125 C 36.363281 -30.671875 36.039062 -32 35.125 -33.1875 C 34.207031 -34.375 32.691406 -34.96875 30.578125 -34.96875 C 28.816406 -35.039062 27.476562 -34.546875 26.5625 -33.484375 C 25.644531 -32.429688 25.164062 -31.207031 25.125 -29.8125 C 25.09375 -28.425781 25.5 -27.1875 26.34375 -26.09375 C 27.195312 -25.007812 28.539062 -24.46875 30.375 -24.46875 L 59.234375 -24.46875 L 59.234375 0 L 30.375 0 C 26.300781 0 22.492188 -0.765625 18.953125 -2.296875 C 15.421875 -3.828125 12.296875 -5.953125 9.578125 -8.671875 C 6.859375 -11.390625 4.734375 -14.515625 3.203125 -18.046875 C 1.679688 -21.578125 0.921875 -25.382812 0.921875 -29.46875 C 0.921875 -34.832031 2.125 -39.722656 4.53125 -44.140625 C 6.945312 -48.554688 10.378906 -52.109375 14.828125 -54.796875 C 19.285156 -57.484375 24.570312 -58.859375 30.6875 -58.921875 C 33.882812 -58.921875 37.097656 -58.613281 40.328125 -58 C 43.554688 -57.394531 46.597656 -56.242188 49.453125 -54.546875 C 52.304688 -52.847656 54.679688 -50.332031 56.578125 -47 C 57.398438 -45.570312 57.992188 -43.875 58.359375 -41.90625 C 58.734375 -39.9375 58.867188 -37.914062 58.765625 -35.84375 C 58.671875 -33.769531 58.25 -31.832031 57.5 -30.03125 C 56.75 -28.226562 55.59375 -26.816406 54.03125 -25.796875 Z M 33.4375 -25.796875 "/></g></g></g><g fill="#5170ff" fill-opacity="1"><g transform="translate(106.309781, 95.851795)"><g><path d="M 30.484375 -58.921875 C 34.554688 -58.921875 38.359375 -58.15625 41.890625 -56.625 C 45.429688 -55.101562 48.5625 -53 51.28125 -50.3125 C 54 -47.625 56.125 -44.492188 57.65625 -40.921875 C 59.1875 -37.359375 59.953125 -33.539062 59.953125 -29.46875 L 59.953125 0 L 35.484375 0 L 35.484375 -29.46875 C 35.484375 -30.820312 34.988281 -32.007812 34 -33.03125 C 33.007812 -34.050781 31.835938 -34.5625 30.484375 -34.5625 C 29.054688 -34.5625 27.847656 -34.050781 26.859375 -33.03125 C 25.878906 -32.007812 25.390625 -30.820312 25.390625 -29.46875 C 25.390625 -28.101562 25.878906 -26.910156 26.859375 -25.890625 C 27.847656 -24.867188 29.054688 -24.359375 30.484375 -24.359375 L 34.046875 -24.359375 L 34.046875 0 L 30.484375 0 C 26.398438 0 22.570312 -0.765625 19 -2.296875 C 15.4375 -3.828125 12.3125 -5.953125 9.625 -8.671875 C 6.945312 -11.390625 4.84375 -14.515625 3.3125 -18.046875 C 1.78125 -21.578125 1.015625 -25.382812 1.015625 -29.46875 C 1.015625 -33.539062 1.78125 -37.359375 3.3125 -40.921875 C 4.84375 -44.492188 6.945312 -47.625 9.625 -50.3125 C 12.3125 -53 15.4375 -55.101562 19 -56.625 C 22.570312 -58.15625 26.398438 -58.921875 30.484375 -58.921875 Z M 30.484375 -58.921875 "/></g></g></g><g fill="#5170ff" fill-opacity="1"><g transform="translate(167.172494, 95.851795)"><g><path d="M 37.3125 -57.203125 L 37.3125 -33.234375 L 27.625 -33.234375 C 26.601562 -33.234375 26.09375 -32.722656 26.09375 -31.703125 L 26.09375 0 L 1.015625 0 L 1.015625 -30.6875 C 1.015625 -36.050781 2.171875 -40.703125 4.484375 -44.640625 C 6.796875 -48.585938 10.003906 -51.664062 14.109375 -53.875 C 18.222656 -56.09375 22.929688 -57.203125 28.234375 -57.203125 Z M 37.3125 -57.203125 "/></g></g></g></g></g><g transform="matrix(1, 0, 0, 1, 73, 65)"><g clip-path="url(#8ee7467660)"><g fill="#5170ff" fill-opacity="1"><g transform="translate(1.569273, 96.162264)"><g><path d="M 35.984375 14.046875 L 35.984375 -28.40625 C 35.984375 -29.820312 35.476562 -31.035156 34.46875 -32.046875 C 33.457031 -33.054688 32.242188 -33.5625 30.828125 -33.5625 C 29.347656 -33.5625 28.117188 -33.054688 27.140625 -32.046875 C 26.160156 -31.035156 25.671875 -29.820312 25.671875 -28.40625 C 25.671875 -26.988281 26.160156 -25.773438 27.140625 -24.765625 C 28.117188 -23.753906 29.347656 -23.25 30.828125 -23.25 L 34.46875 -23.25 L 34.46875 1.625 L 30.828125 1.625 C 26.722656 1.625 22.847656 0.847656 19.203125 -0.703125 C 15.566406 -2.253906 12.363281 -4.410156 9.59375 -7.171875 C 6.832031 -9.941406 4.675781 -13.144531 3.125 -16.78125 C 1.582031 -20.414062 0.8125 -24.289062 0.8125 -28.40625 C 0.8125 -32.582031 1.582031 -36.472656 3.125 -40.078125 C 4.675781 -43.691406 6.832031 -46.878906 9.59375 -49.640625 C 12.363281 -52.398438 15.566406 -54.554688 19.203125 -56.109375 C 22.847656 -57.660156 26.722656 -58.4375 30.828125 -58.4375 C 35.003906 -58.4375 38.894531 -57.660156 42.5 -56.109375 C 46.113281 -54.554688 49.285156 -52.398438 52.015625 -49.640625 C 54.742188 -46.878906 56.878906 -43.691406 58.421875 -40.078125 C 59.972656 -36.472656 60.75 -32.582031 60.75 -28.40625 L 60.75 14.046875 Z M 35.984375 14.046875 "/></g></g></g><g fill="#5170ff" fill-opacity="1"><g transform="translate(63.226259, 96.162264)"><g><path d="M 34.875 -56.71875 L 59.953125 -56.71875 L 59.953125 -27.703125 C 59.953125 -22.847656 59.125 -18.582031 57.46875 -14.90625 C 55.820312 -11.238281 53.582031 -8.171875 50.75 -5.703125 C 47.914062 -3.242188 44.742188 -1.40625 41.234375 -0.1875 C 37.734375 1.019531 34.164062 1.625 30.53125 1.625 C 26.820312 1.625 23.210938 1.019531 19.703125 -0.1875 C 16.203125 -1.40625 13.035156 -3.242188 10.203125 -5.703125 C 7.378906 -8.171875 5.140625 -11.238281 3.484375 -14.90625 C 1.835938 -18.582031 1.015625 -22.847656 1.015625 -27.703125 L 1.015625 -56.71875 L 26.078125 -56.71875 L 26.078125 -28.703125 C 26.078125 -26.953125 26.546875 -25.640625 27.484375 -24.765625 C 28.429688 -23.890625 29.445312 -23.453125 30.53125 -23.453125 C 31.601562 -23.453125 32.59375 -23.890625 33.5 -24.765625 C 34.414062 -25.640625 34.875 -26.953125 34.875 -28.703125 Z M 34.875 -56.71875 "/></g></g></g><g fill="#5170ff" fill-opacity="1"><g transform="translate(124.175696, 96.162264)"><g><path d="M 30.234375 -58.4375 C 34.273438 -58.4375 38.046875 -57.675781 41.546875 -56.15625 C 45.054688 -54.644531 48.15625 -52.554688 50.84375 -49.890625 C 53.539062 -47.222656 55.644531 -44.117188 57.15625 -40.578125 C 58.675781 -37.046875 59.4375 -33.257812 59.4375 -29.21875 L 59.4375 0 L 35.1875 0 L 35.1875 -29.21875 C 35.1875 -30.5625 34.695312 -31.738281 33.71875 -32.75 C 32.738281 -33.757812 31.578125 -34.265625 30.234375 -34.265625 C 28.816406 -34.265625 27.617188 -33.757812 26.640625 -32.75 C 25.660156 -31.738281 25.171875 -30.5625 25.171875 -29.21875 C 25.171875 -27.863281 25.660156 -26.679688 26.640625 -25.671875 C 27.617188 -24.660156 28.816406 -24.15625 30.234375 -24.15625 L 33.765625 -24.15625 L 33.765625 0 L 30.234375 0 C 26.179688 0 22.382812 -0.753906 18.84375 -2.265625 C 15.3125 -3.785156 12.210938 -5.894531 9.546875 -8.59375 C 6.890625 -11.289062 4.800781 -14.390625 3.28125 -17.890625 C 1.769531 -21.398438 1.015625 -25.175781 1.015625 -29.21875 C 1.015625 -33.257812 1.769531 -37.046875 3.28125 -40.578125 C 4.800781 -44.117188 6.890625 -47.222656 9.546875 -49.890625 C 12.210938 -52.554688 15.3125 -54.644531 18.84375 -56.15625 C 22.382812 -57.675781 26.179688 -58.4375 30.234375 -58.4375 Z M 30.234375 -58.4375 "/></g></g></g><g fill="#5170ff" fill-opacity="1"><g transform="translate(184.518677, 96.162264)"><g><path d="M 37 -56.71875 L 37 -32.953125 L 27.390625 -32.953125 C 26.378906 -32.953125 25.875 -32.445312 25.875 -31.4375 L 25.875 0 L 1.015625 0 L 1.015625 -30.421875 C 1.015625 -35.753906 2.160156 -40.375 4.453125 -44.28125 C 6.742188 -48.1875 9.925781 -51.234375 14 -53.421875 C 18.082031 -55.617188 22.75 -56.71875 28 -56.71875 Z M 37 -56.71875 "/></g></g></g><g fill="#5170ff" fill-opacity="1"><g transform="translate(222.422554, 96.162264)"><g><path d="M 33.15625 -25.578125 C 34.644531 -26.390625 35.519531 -27.519531 35.78125 -28.96875 C 36.050781 -30.414062 35.734375 -31.726562 34.828125 -32.90625 C 33.921875 -34.082031 32.421875 -34.671875 30.328125 -34.671875 C 28.578125 -34.742188 27.242188 -34.253906 26.328125 -33.203125 C 25.421875 -32.160156 24.953125 -30.945312 24.921875 -29.5625 C 24.890625 -28.1875 25.289062 -26.957031 26.125 -25.875 C 26.96875 -24.800781 28.300781 -24.265625 30.125 -24.265625 L 58.734375 -24.265625 L 58.734375 0 L 30.125 0 C 26.082031 0 22.304688 -0.753906 18.796875 -2.265625 C 15.296875 -3.785156 12.195312 -5.894531 9.5 -8.59375 C 6.800781 -11.289062 4.691406 -14.390625 3.171875 -17.890625 C 1.660156 -21.398438 0.90625 -25.175781 0.90625 -29.21875 C 0.90625 -34.539062 2.101562 -39.390625 4.5 -43.765625 C 6.894531 -48.148438 10.296875 -51.671875 14.703125 -54.328125 C 19.117188 -56.992188 24.359375 -58.363281 30.421875 -58.4375 C 33.597656 -58.4375 36.785156 -58.128906 39.984375 -57.515625 C 43.179688 -56.910156 46.195312 -55.765625 49.03125 -54.078125 C 51.863281 -52.398438 54.222656 -49.910156 56.109375 -46.609375 C 56.910156 -45.191406 57.5 -43.503906 57.875 -41.546875 C 58.25 -39.597656 58.382812 -37.59375 58.28125 -35.53125 C 58.175781 -33.476562 57.753906 -31.554688 57.015625 -29.765625 C 56.273438 -27.984375 55.128906 -26.585938 53.578125 -25.578125 Z M 33.15625 -25.578125 "/></g></g></g></g></g></svg>